<?xml version="1.0" encoding="UTF-8" standalone="no"?>
<svg
   fill="#000000"
   height="512"
   width="512"
   version="1.1"
   id="Layer_1"
   viewBox="-51.2 -51.2 1350.0979 1350.0979"
   xml:space="preserve"
   sodipodi:docname="new.svg"
   inkscape:version="1.4 (e7c3feb100, 2024-10-09)"
   inkscape:export-filename="hippo.png"
   inkscape:export-xdpi="96"
   inkscape:export-ydpi="96"
   xmlns:inkscape="http://www.inkscape.org/namespaces/inkscape"
   xmlns:sodipodi="http://sodipodi.sourceforge.net/DTD/sodipodi-0.dtd"
   xmlns="http://www.w3.org/2000/svg"
   xmlns:svg="http://www.w3.org/2000/svg"><defs
     id="defs7" /><sodipodi:namedview
     id="namedview7"
     pagecolor="#ffffff"
     bordercolor="#000000"
     borderopacity="0.25"
     inkscape:showpageshadow="2"
     inkscape:pageopacity="0.0"
     inkscape:pagecheckerboard="0"
     inkscape:deskcolor="#d1d1d1"
     inkscape:zoom="0.888412"
     inkscape:cx="334.86716"
     inkscape:cy="242.56764"
     inkscape:window-width="1920"
     inkscape:window-height="1032"
     inkscape:window-x="0"
     inkscape:window-y="26"
     inkscape:window-maximized="1"
     inkscape:current-layer="g5" /><g
     id="SVGRepo_bgCarrier"
     stroke-width="0" /><g
     id="SVGRepo_tracerCarrier"
     stroke-linecap="round"
     stroke-linejoin="round"
     stroke="#cccccc"
     stroke-width="5.12" /><g
     id="SVGRepo_iconCarrier"> <g
   id="g7"> <g
   id="g6"> <g
   id="g5">      <path
   d="m 327.82611,-22.28997 c 29.23125,22.40635021 40.92307,52.201527 51.68885,86.148119 l 3.22166,-1.48395 C 449.50688,31.873357 520.60174,10.199273 594.53367,9.8660023 l 6.07084,-0.04094 C 659.15784,9.5196323 713.19398,12.41441 770.05291,27.4845 l 5.65814,1.494676 c 31.63356,8.554127 62.64204,20.211783 91.97635,34.878983 l 1.01749,-3.15018 c 13.36672,-40.927251 29.20492,-71.205116 67.90097,-92.56996 27.34069,-12.142614 58.73537,-10.050846 86.26014,0.284166 25.3221,11.393317 45.0566,31.56036721 55.929,57.140427 11.0323,29.459027 8.2728,56.955157 -3.4175,85.991068 -4.2461,8.80487 -9.7073,15.92512 -16.2498,23.13735 l -4.5469,5.02532 c -13.9817,12.65014 -31.049,27.51953 -50.9709,27.51953 l 1.9807,2.50141 c 32.3285,41.02528 56.7897,82.78771 70.7665,133.42112 l 1.8396,6.5359 c 6.8689,26.86332 8.0188,54.16917 7.7848,81.75841 l -0.03,7.20762 c -0.044,9.8753 -0.091,19.74657 -0.3034,29.61988 -5.9034,48.0537 6.8829,47.56004 29.9476,78.36572 l 2.839,3.71614 2.7921,3.73955 3.1211,4.13961 c 3.1696,4.22789 6.3118,8.4742 9.4419,12.73107 l 3.0017,4.07931 c 32.2058,44.05922 60.2844,91.32021 77.4033,143.32963 l 2.236,6.43868 c 4.1204,12.42423 6.9869,25.02395 9.6094,37.8319 l 0.9698,4.70701 c 13.2701,67.88203 5.2834,142.91434 -32.8939,201.74181 -9.3887,13.7603 -20.0867,26.3416 -31.6102,38.3554 l -5.1075,5.5413 c -15.9689,16.9737 -35.6793,34.64025 -58.0675,42.31885 l -0.2171,4.2999 c -4.3471,69.6403 -32.9596,131.547 -85.3778,178.3759 -5.2027,4.3231 -10.5008,8.4774 -15.86857,12.5931 l -5.35438,4.285 c -15.1677,11.8677 -31.27671,21.158 -48.24883,30.1743 l -5.98249,3.2306 c -58.99522,30.78 -125.9816,39.1484 -191.65518,39.1948 -2.99468,0.011 -5.98939,0.018 -8.98408,0.029 -8.05069,0.025 -16.10139,0.039 -24.15212,0.046 -5.0612,0 -10.12242,0.012 -15.18365,0.022 -15.92642,0.027 -31.85281,0.045 -47.77924,0.053 -18.21443,0.011 -36.42858,0.043 -54.64293,0.097 -14.19143,0.042 -28.38277,0.06 -42.57423,0.062 -8.42321,0 -16.84613,0.013 -25.26926,0.048 -115.5882,0.45 -222.03752,-21.2654 -307.06177,-104.7613 -35.42923,-35.8471 -68.64997,-89.0157 -69.32788,-140.9889 l 0.0653,-3.9373 c 0.0497,-14.2216 0.0497,-14.2216 -6.98085,-26.0633 -8.40077,-6.5971 -17.65321,-11.7747 -26.90724,-17.06685 -46.971992,-28.3632 -80.911853,-83.60007 -95.153614,-135.71311 -22.79051038,-94.69248 5.802342,-193.2295 55.260122,-274.38069 20.631137,-33.23192 43.638432,-64.99007 69.219912,-94.58576 11.82935,-10.66252 13.47579,-23.1461 13.169,-38.61709 l 0.0547,-7.12459 c 0.0547,-7.53898 0.0607,-15.0768 0.0575,-22.61594 0.0909,-96.89102 19.97,-179.4179 83.15681,-254.73516 l -7.05936,-0.95719 C 213.66877,161.13051 193.85762,144.2957 180.4851,125.60606 163.32949,98.294881 158.59492,67.560719 164.45198,35.988077 c 8.4287,-28.0591867 26.70799,-48.703963 51.90944,-62.750892 35.16043,-18.793941 78.08989,-18.239345 111.46532,4.473798 z"
   fill="#12a4ba"
   id="path2"
   sodipodi:nodetypes="ccccccccccccccccccccccccccccccccccccccccccccscscccccccccccccccccccc"
   style="stroke-width:1.9144" /><path
   d="m 612.11476,478.80484 c 1.29402,-0.001 2.58803,-0.002 3.92126,-0.002 47.70059,-0.0292 95.02841,1.71871 142.53049,6.22523 2.93575,0.2693 5.87156,0.53853 8.80736,0.80764 64.25864,6.0063 130.9955,16.88927 190.29041,43.22362 1.47882,0.64039 2.95763,1.28078 4.48126,1.94056 77.92806,34.00828 138.19726,91.10333 170.82056,170.17522 21.4551,55.10142 28.5844,124.52718 5.4745,179.97721 -18.677,40.26272 -49.5562,66.49703 -90.9144,82.04453 -15.733,5.4008 -31.9558,9.0172 -48.22367,12.3968 -1.4912,0.3129 -2.9823,0.6257 -4.51868,0.9479 -25.5628,4.9975 -51.61792,4.7785 -77.5613,4.7954 -2.70653,0 -2.70653,0 -5.46774,0.01 -50.10583,-0.056 -99.12418,-5.318 -148.76775,-11.6369 -76.01015,-9.669 -151.96042,-14.8397 -228.40557,-6.0752 -2.4897,0.2772 -4.97935,0.5546 -7.54448,0.8404 -23.389,2.6128 -46.76009,5.3828 -70.09349,8.4549 -92.40165,12.1653 -221.20177,27.97405 -300.97235,-32.57477 -2.11367,-1.74349 -2.11367,-1.74349 -4.27003,-3.5222 -1.62626,-1.34001 -3.25253,-2.68001 -4.92811,-4.06063 -32.52042,-28.04829 -48.950855,-66.33975 -52.503932,-108.8891 -1.88911,-36.23836 1.913077,-70.78977 13.400792,-105.29215 1.17343,-3.55362 1.17343,-3.55362 2.37057,-7.17902 14.51089,-42.02846 37.78613,-77.75428 68.46231,-109.59952 1.18453,-1.30544 2.36907,-2.61092 3.58952,-3.95595 20.42177,-21.83488 46.73055,-39.41817 72.98654,-53.47611 2.09747,-1.12717 2.09747,-1.12717 4.2373,-2.27711 78.72467,-41.50848 170.22691,-55.29819 258.03574,-60.89817 1.84725,-0.12067 1.84725,-0.12067 3.73183,-0.24388 30.32629,-1.92315 60.65188,-2.13694 91.03106,-2.14913 z"
   fill="#f0ce98"
   id="path3"
   style="stroke-width:1.9144" /><path
   d="m 431.81702,570.86067 c 28.73705,12.48344 45.31177,37.51325 56.81883,65.40375 5.56093,16.17724 7.42457,37.37596 0.83756,53.60326 -7.82649,14.36229 -17.87982,24.97281 -33.38239,30.63043 -16.8388,4.90711 -29.18617,1.77832 -44.48741,-6.31154 -20.56441,-12.68187 -33.51708,-33.38525 -39.82852,-56.52721 -5.53743,-24.67731 -4.97367,-46.76338 7.16405,-69.53916 13.67476,-19.46499 30.62738,-24.49602 52.87788,-17.25953 z"
   fill="#11a2ba"
   id="path4"
   style="stroke-width:1.9144" /><path
   d="m 854.28658,573.08913 c 15.00167,12.50142 23.06328,29.68438 25.50044,48.85467 1.28087,28.4785 -9.69112,57.45557 -27.51206,79.33551 -12.50629,13.08273 -28.51792,21.12715 -46.56633,22.09041 -15.11898,-0.50257 -26.88635,-6.66888 -37.33083,-17.46892 -10.86164,-13.71187 -15.04631,-29.11148 -14.37297,-46.46167 4.02539,-32.65492 22.08243,-59.56339 47.14214,-80.13564 16.75185,-11.8752 34.21408,-16.37806 53.13961,-6.21436 z"
   fill="#11a2ba"
   id="path5"
   style="stroke-width:1.9144" /><path
   d="m 450.34783,1034.4602 c -1.41659,64.5208 -1.41659,64.5208 -15.31522,80.4048 -19.88532,17.3998 -53.31778,15.6877 -78.13153,15.7938 -2.28638,0.04 -4.5728,0.079 -6.92848,0.1197 -19.09787,0.082 -39.53802,-1.1187 -54.69133,-13.9992 -10.74229,-10.7422 -11.70662,-23.1657 -11.86031,-37.6896 0.0252,-4.6665 0.0704,-9.333 0.13463,-13.999 0.0259,-3.5944 0.0259,-3.5944 0.0523,-7.2612 0.0448,-5.8759 0.10764,-11.7509 0.18696,-17.6261 15.39106,-1.5825 30.73171,-2.4227 46.19241,-2.939 2.35303,-0.081 4.70605,-0.1645 7.13039,-0.2493 4.95681,-0.1717 9.91374,-0.3405 14.87074,-0.5064 7.47709,-0.2516 14.95361,-0.5156 22.4302,-0.781 25.31895,-0.8769 50.59449,-1.5552 75.92922,-1.2675 z"
   fill="#f0c759"
   id="path6"
   style="stroke-width:1.9144" /><path
   d="m 798.76892,1034.4602 c 21.72085,-0.1605 43.34008,0.2687 65.03733,1.2563 2.95796,0.1293 5.91593,0.2582 8.87396,0.3864 7.66337,0.3335 15.32636,0.6755 22.9893,1.0196 7.86837,0.3515 15.7371,0.6952 23.60578,1.0393 15.34922,0.6727 30.69803,1.354 46.04656,2.0416 0.039,5.7308 0.067,11.4613 0.09,17.1922 0.018,2.4023 0.018,2.4023 0.036,4.8529 0.1161,39.9218 0.1161,39.9218 -11.61258,54.5308 -4.26253,3.0811 -4.26253,3.0811 -8.85409,5.2647 -1.48561,0.7404 -2.97122,1.4808 -4.50184,2.2436 -17.10536,6.0995 -34.06864,6.5706 -52.09266,6.4909 -2.45839,-0.011 -4.91677,-0.015 -7.44963,-0.025 -24.9162,-0.297 -51.04194,-1.3131 -70.32296,-18.8805 -15.33312,-20.6505 -12.13878,-53.2008 -11.84537,-77.4135 z"
   fill="#f0c759"
   id="path7"
   style="stroke-width:1.9144" /><path
   d="m 878.33626,279.34805 c 18.09777,10.56929 27.60335,22.57433 33.38239,42.95438 2.60435,16.56286 -1.09576,32.84938 -10.81338,46.57383 -13.71133,16.16619 -28.0928,23.27443 -48.98926,26.92128 -16.11254,0.93406 -30.58437,-6.38239 -42.49822,-16.54163 -7.70128,-7.43279 -12.7187,-14.39226 -16.39206,-24.40861 -0.78968,-1.89527 -1.57939,-3.79053 -2.39301,-5.74321 -3.98284,-15.93141 -1.14228,-32.6944 7.06685,-46.8879 18.81873,-25.93584 50.92332,-36.93699 80.63669,-22.86814 z"
   fill="#f1c659"
   id="path8"
   style="stroke-width:1.9144" /><path
   d="m 431.91423,282.27947 c 14.17994,10.28206 22.68704,22.21049 27.40734,38.94612 2.21642,18.17469 -0.17276,35.31306 -11.00779,50.49236 -12.14236,14.29417 -27.64041,21.63022 -46.0354,23.81039 -16.44588,0.93311 -31.01764,-4.73874 -43.58255,-15.19558 -13.9892,-13.41258 -19.56488,-27.4607 -20.22087,-46.5439 -0.13098,-16.77176 4.92236,-29.72266 15.89103,-42.41597 3.73212,-3.53019 7.47532,-6.42699 11.74818,-9.2729 1.84711,-1.24006 1.84711,-1.24006 3.73153,-2.50517 19.12408,-10.52733 43.74476,-7.88579 62.06853,2.68465 z"
   fill="#f1c65a"
   id="path9"
   style="stroke-width:1.9144" /></g> </g> </g> </g></svg>
