<?xml version="1.0" encoding="UTF-8" standalone="no"?>
<svg
   fill="#000000"
   height="233px"
   width="233px"
   version="1.1"
   id="Layer_1"
   viewBox="-51.2 -51.2 614.40 614.40"
   xml:space="preserve"
   transform="matrix(1, 0, 0, 1, 0, 0)rotate(0)"
   sodipodi:docname="hippo.svg"
   inkscape:version="1.4 (e7c3feb100, 2024-10-09)"
   inkscape:export-filename="hippo.png"
   inkscape:export-xdpi="412.01718"
   inkscape:export-ydpi="412.01718"
   xmlns:inkscape="http://www.inkscape.org/namespaces/inkscape"
   xmlns:sodipodi="http://sodipodi.sourceforge.net/DTD/sodipodi-0.dtd"
   xmlns="http://www.w3.org/2000/svg"
   xmlns:svg="http://www.w3.org/2000/svg"><defs
     id="defs7" /><sodipodi:namedview
     id="namedview7"
     pagecolor="#ffffff"
     bordercolor="#000000"
     borderopacity="0.25"
     inkscape:showpageshadow="2"
     inkscape:pageopacity="0.0"
     inkscape:pagecheckerboard="0"
     inkscape:deskcolor="#d1d1d1"
     inkscape:zoom="2.5128086"
     inkscape:cx="116.40361"
     inkscape:cy="119.38832"
     inkscape:window-width="1920"
     inkscape:window-height="1031"
     inkscape:window-x="1920"
     inkscape:window-y="27"
     inkscape:window-maximized="1"
     inkscape:current-layer="g5" /><g
     id="SVGRepo_bgCarrier"
     stroke-width="0" /><g
     id="SVGRepo_tracerCarrier"
     stroke-linecap="round"
     stroke-linejoin="round"
     stroke="#CCCCCC"
     stroke-width="5.12" /><g
     id="SVGRepo_iconCarrier"> <g
   id="g7"> <g
   id="g6"> <g
   id="g5"> <path
   d="M203.839,210.583c11.355,0,20.582-9.332,20.582-20.843c0-11.513-9.227-20.835-20.582-20.835 c-11.34,0-20.569,9.324-20.569,20.835C183.27,201.251,192.498,210.583,203.839,210.583z"
   id="path1"
   style="fill:#445500" /> <path
   d="M308.011,210.738c11.436,0,20.724-9.401,20.724-20.998c0-11.597-9.288-20.998-20.724-20.998 c-11.45,0-20.738,9.401-20.738,20.998C287.272,201.337,296.56,210.738,308.011,210.738z"
   id="path2"
   style="fill:#445500" /> <path
   d="m 474.286,282.159 c -1.796,-1.836 -3.648,-3.605 -5.54,-5.321 0.069,-2.163 0.11,-4.312 0.11,-6.431 0,-44.117 -5.57,-81.242 -16.904,-112.195 11.833,-5.703 22.227,-14.193 30.254,-24.935 C 494.62,116.661 500.29,96.14 498.168,75.496 495.916,53.579 485.265,33.853 468.174,19.948 451.086,6.044 429.605,-0.377 407.688,1.879 389.793,3.718 373.366,11.127 360.184,23.307 351.641,31.2 344.849,40.916 340.28,51.565 315.614,43.849 287.496,39.954 256,39.954 c -31.496,0 -59.614,3.895 -84.279,11.612 C 167.152,40.916 160.36,31.201 151.817,23.308 138.633,11.129 122.208,3.718 104.313,1.879 82.395,-0.373 60.914,6.044 43.825,19.948 26.736,33.854 16.084,53.581 13.832,75.497 c -2.121,20.644 3.547,41.165 15.962,57.781 8.027,10.743 18.42,19.232 30.254,24.935 -11.334,30.952 -16.904,68.077 -16.904,112.195 0,2.118 0.04,4.267 0.11,6.431 -1.892,1.716 -3.743,3.485 -5.54,5.321 C 13.393,307.012 0,340.586 0,376.696 0,450.511 60.052,510.563 133.867,510.563 h 244.267 c 73.814,0 133.866,-60.052 133.866,-133.867 0,-36.11 -13.393,-69.684 -37.714,-94.537 z M 410.893,33.062 c 13.584,-1.396 26.904,2.582 37.498,11.202 10.595,8.62 17.198,20.85 18.594,34.437 1.316,12.798 -2.197,25.516 -9.891,35.814 -4.849,6.491 -11.084,11.659 -18.178,15.191 -3.194,-5.692 -6.639,-11.13 -10.355,-16.302 C 413.207,92.032 393.42,75.282 369.339,63.207 376.62,46.635 392.23,34.979 410.893,33.062 Z M 162.7,88.316 c 25.216,-11.29 56.606,-17.015 93.3,-17.015 36.694,0 68.085,5.725 93.3,17.015 22.46,10.056 40.058,24.245 53.802,43.376 21.27,29.608 32.49,70.322 34.175,124.13 -17.976,-8.502 -38.071,-12.991 -59.144,-12.991 -57.274,0 -103.906,20.856 -122.133,30.33 -18.227,-9.474 -64.859,-30.33 -122.133,-30.33 -21.074,0 -41.168,4.489 -59.144,12.991 1.685,-53.808 12.906,-94.521 34.175,-124.13 13.744,-19.131 31.343,-33.32 53.802,-43.376 z M 54.906,114.515 C 47.212,104.219 43.699,91.499 45.015,78.701 c 1.396,-13.587 8,-25.817 18.594,-34.437 10.594,-8.619 23.909,-12.601 37.498,-11.202 18.663,1.917 34.273,13.573 41.553,30.144 -24.081,12.074 -43.868,28.824 -59.221,50.197 -3.716,5.172 -7.161,10.611 -10.355,16.302 -7.093,-3.531 -13.328,-8.699 -18.178,-15.19 z M 378.133,479.217 H 133.867 c -56.53,0 -102.52,-45.99 -102.52,-102.52 0,-58.446 44.074,-102.52 102.52,-102.52 63.396,0 113.475,29.969 113.949,30.257 l 8.175,4.976 8.169,-4.961 c 0.498,-0.303 50.577,-30.272 113.973,-30.272 58.446,0 102.52,44.074 102.52,102.52 0,56.529 -45.99,102.52 -102.52,102.52 z"
   id="path3"
   sodipodi:nodetypes="ccscccccccscccccccsccssssccccccccccscccscscccccccccccsssscccsss"
   style="fill:#008080" /> <path
   d="M135.739,332.406c-24.422,0-44.29,19.869-44.29,44.29c0,24.421,19.869,44.29,44.29,44.29 c24.421,0,44.29-19.869,44.29-44.29C180.029,352.275,160.16,332.406,135.739,332.406z M135.739,389.641 c-7.137,0-12.943-5.807-12.943-12.943c0-7.137,5.807-12.943,12.943-12.943s12.943,5.807,12.943,12.943 C148.682,383.834,142.875,389.641,135.739,389.641z"
   id="path4"
   style="fill:#550000" /> <path
   d="M376.261,332.406c-24.422,0-44.29,19.869-44.29,44.29c0,24.421,19.869,44.29,44.29,44.29s44.29-19.869,44.29-44.29 C420.552,352.275,400.684,332.406,376.261,332.406z M376.261,389.641c-7.137,0-12.943-5.807-12.943-12.943 c0-7.137,5.806-12.943,12.943-12.943s12.943,5.807,12.943,12.943C389.205,383.834,383.398,389.641,376.261,389.641z"
   id="path5"
   style="fill:#550000" /> </g> </g> </g> </g></svg>
